<svg xmlns="http://www.w3.org/2000/svg" viewBox="0 0 440 440"><defs><linearGradient id="a" x1="220.06261" x2="219.68614" y1="30.363987" y2="409.38553" gradientUnits="userSpaceOnUse"><stop offset="0" stop-color="#61a3d1"/><stop offset="1" stop-color="#82c6ec"/></linearGradient></defs><defs><linearGradient id="b" x1="220.06261" x2="219.68614" y1="30.363987" y2="409.38553" gradientUnits="userSpaceOnUse"><stop offset="0" stop-color="#5295c5"/><stop offset="1" stop-color="#82c6ec"/></linearGradient></defs><path d="M83.6957 21.1114c7.7997-.2326 16.0401-.1165 23.8723-.1166h38.746l118.391.0024 62.809-.0068c13.313-.0017 27.103-.6382 40.184 1.1703 23.268 3.2167 41.443 17.0186 47.923 40.0757 4.023 14.314 3.405 26.851 3.399 41.5106l-.009 35.482.003 110.813.009 72.96v20.968c-.001 8.125.047 15.313-1.137 23.396-5.039 34.381-28.182 49.887-61.238 51.578-21.239.474-43.729.109-65.037.11l-120.627-.003-59.128.007c-24.9868.01-52.3612 2.525-72.2176-15.79-19.6737-18.147-18.6409-43.005-18.6306-67.436l.0079-36.418-.0041-113.03-.007-70.557.0034-20.1439c.0033-8.026-.0468-15.1085 1.1218-23.0814 5.0924-34.7426 28.2317-49.9074 61.5659-51.4903"/><path fill="url(#a)" d="M84.9955 30.1098c6.9796-.4132 14.8797-.0981 21.9195-.0964l38.101.0028 116.461.0006 65.249-.0059c12.417-.0022 26.989-.4746 39.09.9339 10.382 1.4735 21.075 5.3632 28.721 12.638 17.775 16.9123 15.444 42.3053 15.429 64.6522l-.005 38.149.014 118.697.014 62.757c0 12.451.709 25.796-.936 38.07-4.1 30.597-25.274 43.214-54.008 43.9-6.037.37-13.967.161-20.104.16l-35.231-.003-108.551-.001-73.807.003-21.5469.009c-7.3497-.001-14.0935-.027-21.3377-.888-27.8223-3.307-43.2002-23.056-44.1819-50.351-.2928-8.142-.2772-16.418-.272-24.68l.0087-35.826.0007-112.591-.0053-70.24.0019-20.1878c.0056-17.4329.6107-35.5332 13.1645-49.314 11.0212-12.0984 26.2058-15.1338 41.8115-15.7884"/><path fill="url(#b)" d="M102.535 51.1091c5.408-.4235 11.977-.1105 17.506-.1079l31.243.0101 96.475-.0031 62.949-.0071c12.275-.002 26.21-.4882 38.214.9519 9.917 1.4298 20.403 5.1442 27.886 11.8992 17.268 15.5885 16.215 38.1548 16.201 59.2328l-.008 31.042-.014 95.622-.004 59.137c.004 12.317.73 25.213-1.008 37.369-4.436 31.042-25.151 42.373-53.624 43.635-6.161.406-13.394.107-19.616.104l-32.688-.003-100.78-.001-57.193.009c-21.501.003-47.0063 2.485-64.1702-13.171-17.401-15.873-15.8944-39.595-15.8873-60.995l.009-30.875-.0174-96.711-.0212-56.881c-.0099-11.967-.6923-24.612.9959-36.437 4.3984-30.8091 24.7097-42.5618 53.5522-43.8199"/></svg>