<svg xmlns="http://www.w3.org/2000/svg" viewBox="112 27 303 436">
  <path fill="#9bd001" d="M324 135c-1 7 5 9 10 13l10 8q9 7 17 16l4 7 8 10 2 3q19 25 31 55 6 11 9 23v15q-4 19-11 37l-12 27-6 12-3 9 3 8 8 16c4 5 11 9 13 15q1 3-1 6c-2 13-15 27-26 35l-8 4c-9 4-29-8-37-12q-11-6-23-9l-10-2c-5-1-15 0-19 4-6 7-9 15-18 20q-9 5-19 6l-5 1q-8 2-16 0l-14-1c-4-1-13-2-14-6q0-4 3-7l5-7q2-6-3-8c-5-3-12-3-16-8l-6-7q-6-1-12 1c-8 1-19 4-27 0-9-5-23-19-27-29q-3-6-1-12 2-3 7-5c7-4 18-8 24-13q3-3 1-8l-2-10-1-10-1-3q-4-5-5-12v-7q1-6-2-11h-1q-4 0-7-4c-2-5-2-15 0-21q0-5 3-11l1-7c1-9 1-11 5-19 4-7 2-15 3-22l2-8q0-12 11-21l15-16c10-8 27-15 39-16h29q22-10 46-16h12v-1l3 1 12 2c4 1 10 5 14 4l2-7z"/>
  <path fill="#fcfdfd" d="m151 186 15-16c10-8 27-15 39-16h29l3 2 6 6c17-6 40-7 57 1a76 76 0 0 1 39 65c0 6-2 17-5 23a95 95 0 0 1-54 41c-21 8-46 9-67-2q-12-5-20-17l-4-6q-7 4-15 4-26 0-35-25l-3-6-1-3c4-7 2-15 3-22l2-8q0-12 11-21"/>
  <path fill="#1f2c07" d="M225 154h9l3 2 6 6c17-6 40-7 57 1a76 76 0 0 1 39 65c0 6-2 17-5 23a95 95 0 0 1-54 41c-21 8-46 9-67-2q-12-5-20-17l-4-6q-7 4-15 4-26 0-35-25l-3-6-1-3c4-7 2-15 3-22l2-8q0-12 11-21v1l3-4-1 3q-7 10-12 23-5 21 6 40 7 12 20 16 12 3 20-2l1-6 5 8c27 47 108 28 132-12 16-27 2-69-24-84-19-12-42-8-62-3l-6 2-3 2v-1l7-6q-6-7-16-9z"/>
  <path fill="#100904" d="m151 186 15-16c10-8 27-15 39-16h20-4c-18-3-37 6-51 15q-11 7-17 17l1-3z"/>
  <path fill="#0f1402" d="M201 209c-1 5-7 14-12 14q-7-1-6-6c-1-7 5-17 13-19l4 2q3 4 1 9"/>
  <path fill="#100904" d="M200 200q3 4 1 9 1-1-1-3l-2-5h1z"/>
  <path fill="#fcfdfd" d="M198 201q3 3 2 5v1q-3-2-2-6"/>
  <path fill="#0f1402" d="M224 213q-1 6-6 11c-4 5-12 7-12-2q1-9 7-15 4-6 9-1 3 3 2 7"/>
  <path fill="#100904" d="M222 206q3 3 2 7h-1q0-4-2-6z"/>
  <path fill="#fcfdfd" d="M221 207q3 2 2 6l-1-1q-3-2-1-5"/>
  <path fill="#9bd001" d="m169 318 5 4 9 7 3 2 9 3 12-1 1 2 7 7 12 5 5 2 8 10 3 6q14 32-4 60c-6 11-18 12-30 11l-4 5q2-6-3-8c-5-3-12-3-16-8l-6-7q-6-1-12 1c-8 1-19 4-27 0-9-5-23-19-27-29q-3-6-1-12 2-3 7-5c7-4 18-8 24-13q3-3 1-8l-2-10-1-10h2c7 0 17-7 23-11z"/>
  <path fill="#3f5b16" d="M199 341h7l9 1 12 5 5 2 8 10 3 6q14 32-4 60c-6 11-18 12-30 11l-4 5q2-6-3-8c-5-3-12-3-16-8l-6-7q-6-1-12 1c-8 1-19 4-27 0-9-5-23-19-27-29q-3-6-1-12 2-3 7-5c7-4 18-8 24-13q3-3 1-8l2 1 4 13c4 9 10 22 17 29l10 5 7-23 1 17v23c0 2 5 6 7 7q15 8 31 4 7-2 10-8 12-23 7-47-6-16-19-22-16-8-34-3 4-1 5-5h-1l-2 1h-5z"/>
  <path fill="#6e9a31" d="m144 360 2 8 6 15q6 12 17 23l8 6 1 1v1l-23 4h-9q-13-6-22-17l-6-8q-4-5-3-12 3-5 7-8h2l1-1 2-2-8 3c7-4 18-8 24-13"/>
  <defs>
    <linearGradient id="a" x1="163.5" x2="198.7" y1="328.4" y2="346.1" gradientUnits="userSpaceOnUse">
      <stop offset="0" stop-color="#410605"/>
      <stop offset="1" stop-color="#294821"/>
    </linearGradient>
  </defs>
  <path fill="url(#a)" d="m169 318 5 4 9 7 3 2 9 3 12-1 1 2 7 7-9-1h-7l-14 3h5l2-1h1q-1 4-5 5h-3l-1-1 4-2v-1q-2 2-7 3c-5 0-17-4-20-10q-1-2 2-4l2 1 2-13z"/>
  <path fill="#961c18" d="m174 322 9 7-3 3-9 9-2-2z"/>
  <path fill="#fcfdfd" d="M184 336q8 0 15 5l-14 3-9-1q2-4 8-7"/>
  <path fill="#961c18" d="m195 334 12-1 1 2 7 7-9-1h-3l-2-4z"/>
  <path fill="#502f21" d="m183 329 3 2c-2 2-3-1-6 1z"/>
  <path fill="#3f5b16" d="M181 347q5-1 7-3v1l-4 2 1 1h3l-11 4z"/>
  <path fill="#74ae09" d="m144 340 3 13-2-1-2-10z"/>
  <path fill="#6c8a1e" d="M142 332h2v4l-1 2z"/>
  <path fill="#6e9a31" d="M144 336v4l-1 2v-4zm235 34h4l3 8 8 16c4 5 11 9 13 15q1 3-1 6c-2 13-15 27-26 35l-8 4c-9 4-29-8-37-12q-11-6-23-9l-10-2c-5-1-15 0-19 4-6 7-9 15-18 20l1-1 12-16 21-26 12-16-4 10h2q25-4 46-15l5-3q11-7 19-18"/>
  <path fill="#3f5b16" d="m265 455 1-1 12-16 21-26 12-16-4 10q-6 11-14 21h1l8 1q18 3 35 11l22 11 5 1c-4 1-11-4-14-5q-3 0-2 2l17 6h7c-9 4-29-8-37-12q-11-6-23-9l-10-2c-5-1-15 0-19 4-6 7-9 15-18 20m121-77 8 16c4 5 11 9 13 15q1 3-1 6l1-4q0-4-4-7l-2-1c-1 1 3 4 3 7q-3-7-11-13l-6-10-2-5 2 3q1 6 6 10l2 2c0-2-5-8-6-10zm-5 28 13 3c-11 1-15 5-22 13l-7 8c2-7 9-15 13-22q2-3 3-2"/>
  <defs>
    <linearGradient id="b" x1="285.8" x2="294.9" y1="307.3" y2="361.2" gradientUnits="userSpaceOnUse">
      <stop offset="0" stop-color="#560a03"/>
      <stop offset="1" stop-color="#2f150a"/>
    </linearGradient>
  </defs>
  <path fill="url(#b)" d="M281 307q24-11 48-3l5 1 4 2 4 2h1l4 2 1 2-2 14q-6 15-20 22l-1 1-11 5q-26 11-55 9l-19-5-8-10h1l10-2q9-4 14-13l2-3 6-17 11-5z"/>
  <path fill="#fcfdfd" d="M281 307q24-11 48-3c-11 16-20 26-39 11z"/>
  <path fill="#dc3326" d="M314 331q-4 6-9 8h-1q-5-2-10-1l-10 8-11 2c-5 0-27 1-30-1q9-4 14-13h10l-5 3 1 1 19-4z"/>
  <path fill="#5d0204" d="m258 339 4-2 1 1z"/>
  <path fill="#961c18" d="M243 347c3 2 25 1 30 1l11-2-6 13q-18 1-35-5c-2-1-9-3-10-5z"/>
  <defs>
    <linearGradient id="c" x1="301.5" x2="306.5" y1="327.4" y2="300" gradientUnits="userSpaceOnUse">
      <stop offset="0" stop-color="#242f0f"/>
      <stop offset="1" stop-color="#312611"/>
    </linearGradient>
  </defs>
  <path fill="url(#c)" d="m329 304 5 1-3 5-3 6-10 9q-10 6-20 2-10-6-17-13l-4-5h-1l5-2 9 8c19 15 28 5 39-11"/>
  <path fill="#961c18" d="M309 331c7-1 21 0 27 5l-17 12q-6-7-15-9h1q5-2 9-8zm-44-17 11-5-2 7q-2 8-1 15h-14zm73-7 4 2h1q0 8-3 14v5h-1v-8z"/>
  <path fill="#100904" d="m347 311 1 2-2 14v-14zm-1 13v3q-6 15-20 22l-1 1c0-1 13-9 14-12 0-1 6-7 6-10h-1z"/>
  <path fill="#fcfdfd" d="M298 342c6-1 14 4 19 7q-9 5-19 6l-17 3q5-12 17-16"/>
  <path fill="#3f5b16" d="m135 237 1 3c-7 13 0 25 6 37a150 150 0 0 0 44 48c13 7 32 1 45-3l19-7c21-9 44-23 69-20 6 1 16 5 22 8q9 4 15 13l-8-3-1-2-4-2h-1l-4-2-4-2-5-1q-24-8-48 3l-5 2-11 5-6 17-2 3q-5 9-14 13l-10 2h-1l-5-2-12-5-7-7-1-2-12 1-9-3-3-2-9-7-5-4-2 3c-6 4-16 11-23 11h-2l-1-3q-4-5-5-12v-7q1-6-2-11h-1q-4 0-7-4c-2-5-2-15 0-21q0-5 3-11l1-7c1-9 1-11 5-19"/>
  <path fill="#fcfdfd" d="m129 263 4 8a154 154 0 0 0 30 42l3 4 3 1-2 3c-6 4-16 11-23 11h-2l-1-3q-4-5-5-12v-7q1-6-2-11h-1q-4 0-7-4c-2-5-2-15 0-21q0-5 3-11"/>
  <path fill="#1f2c07" d="M136 310q3 24 23 11l6-4 3 1-2 3c-6 4-16 11-23 11h-2l-1-3q-4-5-5-12z"/>
  <defs>
    <linearGradient id="d" x1="124.2" x2="139.6" y1="285.4" y2="295.2" gradientUnits="userSpaceOnUse">
      <stop offset="0" stop-color="#10160d"/>
      <stop offset="1" stop-color="#252915"/>
    </linearGradient>
  </defs>
  <path fill="url(#d)" d="M134 299q-4 0-7-4c-2-5-2-15 0-21-1 5 0 14 2 18q3 3 7 2l4-8h1l-1 5q-3 10-2 19h-1q1-6-2-11"/>
  <path fill="#fcfdfd" d="m260 316 5-2-6 17-2 3q-5 9-14 13l-10 2h-1l-5-2-12-5-7-7-1-2 5-1 10-2 28-10z"/>
  <defs>
    <linearGradient id="e" x1="232.4" x2="238.7" y1="348.7" y2="310.3" gradientUnits="userSpaceOnUse">
      <stop offset="0" stop-color="#232e0b"/>
      <stop offset="1" stop-color="#29281b"/>
    </linearGradient>
  </defs>
  <path fill="url(#e)" d="m260 316 5-2-6 17-2 3q-5 9-14 13l-10 2h-1l-5-2-12-5-7-7-1-2 5-1q7 6 14 9c12 6 24-5 30-14z"/>
  <path fill="#585021" d="m334 305 5 1 3 3-4-2z"/>
  <path fill="#3f5b16" d="M375 192q19 25 31 55 6 11 9 23v15q-4 19-11 37l-12 27-6 12h-1l16-43 8-24q6-24-5-47-10-22-23-43l-7-11zm-141-38q22-10 46-16l2 1-1 1h-1l-10 3-27 10-6 3zm90-19c-1 7 5 9 10 13l-7-2-1 1-5-3 2-7zM200 448v6q3 4 10 5h2v1l-1 1c-4-1-13-2-14-6q0-4 3-7"/>
  <path fill="#1f2c07" d="M344 156q9 7 17 16l-1 1-1-1v1l-9-10z"/>
  <path fill="#3f5b16" d="m226 460 17 1h3l-5 1q-8 2-16 0z"/>
  <path fill="#527a30" d="m364 179 1 1 8 10 2 3-1 1zm15 191 6-9h1l-3 9z"/>
  <path fill="#6c8a1e" d="m212 459 11 1h3l-1 2-14-1z"/>
  <path fill="#3f5b16" d="m361 172 4 7-1-1v1l-5-6v-1l1 1zm-81-34h12l-11 2 1-1z"/>
  <path fill="#9bd001" d="M292 137q8 1 14-2c11-4 22-38 24-48l4-18c1-9-3-15 2-25q4-10 15-16c7-3 22 1 24 9q4 7 2 16-3 10-12 15l-5 4a221 221 0 0 0-39 72c-4 1-10-3-14-4l-12-2z"/>
  <defs>
    <linearGradient id="f" x1="315" x2="353.3" y1="70.9" y2="99.3" gradientUnits="userSpaceOnUse">
      <stop offset="0" stop-color="#46650d"/>
      <stop offset="1" stop-color="#7dac45"/>
    </linearGradient>
  </defs>
  <path fill="url(#f)" d="M292 137q8 1 14-2c11-4 22-38 24-48l4-18c1-9-3-15 2-25q4-10 15-16c7-3 22 1 24 9l2 7q1 5-2 10l1-8c0-3-3-11-5-12q-6-5-14-4-9 0-14 7c-8 8-7 16-6 26 0 8-3 12 4 18 8 7 14-5 19-10v1a221 221 0 0 0-39 72c-4 1-10-3-14-4l-12-2z"/>
  <path fill="#527a30" d="M371 34c2 1 5 9 5 12l-1 8q3-5 2-10l-2-7q4 7 2 16-3 10-12 15l-5 4v-1l2-2q12-6 14-20 0-8-5-15"/>
</svg>
