<?xml version="1.0" encoding="utf-8" ?><svg xmlns="http://www.w3.org/2000/svg" xmlns:xlink="http://www.w3.org/1999/xlink" width="417" height="464" viewBox="0 0 417 464"><path fill="#9BD001" d="M324.382 134.725C322.803 142.455 328.994 143.676 333.692 147.681C337.061 150.4 341.009 153.333 344.232 156.115C350.069 160.45 356.07 166.711 360.522 172.451C362.072 173.777 364.323 176.831 365.487 178.63C367.787 182.114 370.584 185.246 372.873 188.739C373.521 189.728 374.193 190.696 374.9 191.644C387.662 208.643 397.893 227.292 406.476 246.696C409.673 253.922 413.164 261.727 414.635 269.529C415.491 274.074 415.398 280.314 414.751 284.889C412.925 297.804 408.333 310.172 403.639 322.248C400.169 331.177 396.533 340.106 392.48 348.786C390.543 352.933 388.33 356.946 386.396 361.099C385.448 363.677 383.572 367.964 383.456 370.472C383.918 374.37 384.946 375.447 385.651 378.445C388.21 383.565 390.791 389.039 393.981 393.807C397.59 399.201 405.233 403.028 407.31 409.383C407.762 410.766 407.032 413.233 406.44 414.577C404.152 428.177 390.926 442.235 379.916 449.75C377.86 451.153 374.448 453.164 372.012 453.766C362.953 457.669 343.424 446.046 334.967 442C327.452 438.383 319.654 435.387 311.65 433.041C308.947 432.249 304.501 430.862 301.787 430.664C296.869 430.306 286.578 430.844 283.265 434.848C277.218 442.154 273.617 450.406 264.921 455.129C258.747 458.744 252.809 460.192 245.818 461.216C244.093 461.548 242.395 461.572 240.693 461.877C235.551 462.799 229.799 463.87 224.684 461.991C220.199 461.472 215.405 461.175 210.773 460.651C207.464 460.184 197.943 458.505 196.932 454.748C196.34 452.547 198.57 449.483 199.791 447.668C201.339 445.263 202.93 442.888 204.565 440.542C205.957 436.979 206.249 434.341 202.038 432.532C196.75 430.26 189.588 429.625 185.715 424.923C183.567 422.314 182.45 419.811 179.783 417.576C175.604 417.296 171.679 418.188 167.595 418.9C159.596 420.293 148.616 422.514 140.989 418.872C131.586 414.382 117.58 399.804 114.186 390.231C113.081 387.114 111.253 381.456 112.866 378.314C114.121 375.871 117.315 373.728 119.844 372.863C126.719 369.132 137.881 365.212 143.762 360.12C146.15 357.311 145.585 355.88 145.321 352.252C145.127 349.662 143.996 344.79 143.404 342.205C143.089 340.724 142.809 339.236 142.566 337.742C142.41 335.659 142.195 333.581 141.92 331.51C141.657 330.915 141.596 329.941 141.259 329.307C138.979 325.03 136.047 322.295 136.337 317.082C136.45 315.047 136.313 312.294 136.312 310.16C136.259 305.807 136.606 302.362 133.597 298.97L133.079 298.823C130.437 298.071 127.529 297.552 126.25 294.887C123.805 289.791 123.927 279.612 125.523 274.357C126.131 270.983 126.951 265.587 128.708 262.788C128.928 260.933 129.729 258.042 129.909 255.81C130.604 247.225 130.936 244.984 135.15 237.368C138.582 230.039 136.929 222.334 137.624 214.617C137.813 212.519 139.08 209.477 139.501 207.361C141.36 198.027 142.891 192.611 150.536 186.408C153.552 182.259 162.118 173.188 166.233 169.779C175.817 161.84 192.777 155.368 204.956 153.628C207.592 153.252 222.324 153.422 225.127 153.624C228.091 154.238 231.334 155.042 234.297 154.08C248.857 146.887 264.288 141.609 280.203 138.38C284.432 137.146 287.646 137.445 292.045 137.504L292.37 137.478C293.548 137.59 293.461 137.589 294.57 137.881C298.485 138.911 303.65 138.779 307.471 139.673C311.41 140.595 316.59 144.502 321.083 144.205C320.781 141.795 321.614 138.955 322.516 136.739C323.029 135.478 323.138 135.326 324.382 134.725Z"/><path fill="#FCFDFD" d="M150.536 186.408C153.552 182.259 162.118 173.188 166.233 169.779C175.817 161.84 192.777 155.368 204.956 153.628C207.592 153.252 222.324 153.422 225.127 153.624C228.091 154.238 231.334 155.042 234.297 154.08C235.211 154.86 235.493 155.023 236.556 155.597C238.452 157.374 240.986 159.708 242.529 161.785C259.574 155.696 283.342 154.948 300.032 162.709C314.837 169.593 328.981 187.241 334.418 202.459C336.808 209.149 339.411 220.868 339.434 228.054C339.454 234.321 336.624 245.155 333.766 250.882C326.352 265.735 309.541 278.61 295.209 286.423C290.992 288.723 284.838 290.915 280.402 292.448C258.852 299.893 234.025 300.611 213.254 290.377C204.313 285.972 198.542 280.962 192.829 272.786C191.742 271.231 189.962 269.003 189.139 267.353C183.811 269.765 180.049 270.991 174.11 271.009C155.833 271.063 145.818 261.851 138.714 245.825C137.837 243.813 136.977 241.793 136.133 239.766C135.873 238.178 136.068 238.46 135.15 237.368C138.582 230.039 136.929 222.334 137.624 214.617C137.813 212.519 139.08 209.477 139.501 207.361C141.36 198.027 142.891 192.611 150.536 186.408Z"/><path fill="#1F2C07" d="M225.127 153.624C228.091 154.238 231.334 155.042 234.297 154.08C235.211 154.86 235.493 155.023 236.556 155.597C238.452 157.374 240.986 159.708 242.529 161.785C259.574 155.696 283.342 154.948 300.032 162.709C314.837 169.593 328.981 187.241 334.418 202.459C336.808 209.149 339.411 220.868 339.434 228.054C339.454 234.321 336.624 245.155 333.766 250.882C326.352 265.735 309.541 278.61 295.209 286.423C290.992 288.723 284.838 290.915 280.402 292.448C258.852 299.893 234.025 300.611 213.254 290.377C204.313 285.972 198.542 280.962 192.829 272.786C191.742 271.231 189.962 269.003 189.139 267.353C183.811 269.765 180.049 270.991 174.11 271.009C155.833 271.063 145.818 261.851 138.714 245.825C137.837 243.813 136.977 241.793 136.133 239.766C135.873 238.178 136.068 238.46 135.15 237.368C138.582 230.039 136.929 222.334 137.624 214.617C137.813 212.519 139.08 209.477 139.501 207.361C141.36 198.027 142.891 192.611 150.536 186.408L150.824 186.501C151.238 186.179 153.133 183.881 153.835 183.162C153.144 184.067 152.57 184.557 152.593 185.739C148.018 193.494 143.5 200.32 141.097 209.114C137.246 223.201 139.636 236.359 146.788 248.919C151.551 257.283 157.911 262.833 167.358 265.296C174.749 267.223 180.862 266.312 187.423 262.52C187.638 260.546 187.653 258.685 187.695 256.707C189.339 258.894 191.702 262.487 193.022 264.824C219.575 311.828 300.517 292.586 324.509 253.018C340.758 226.221 327.165 184.462 301.056 168.696C282.303 157.373 259.126 160.815 239.439 166.177C237.426 166.71 235.442 167.346 233.495 168.082C232.17 168.593 231.026 169.269 229.679 169.604L229.658 169.188C230.948 167.403 235.141 164.766 237.068 163.448C232.13 158.086 228.03 156.062 221.004 154.361C222.536 153.66 223.491 153.673 225.127 153.624Z"/><path fill="#100904" d="M150.536 186.408C153.552 182.259 162.118 173.188 166.233 169.779C175.817 161.84 192.777 155.368 204.956 153.628C207.592 153.252 222.324 153.422 225.127 153.624C223.491 153.673 222.536 153.66 221.004 154.361C203.262 150.966 184.293 159.8 169.677 169.103C162.214 173.853 157.837 178.825 152.593 185.739C152.57 184.557 153.144 184.067 153.835 183.162C153.133 183.881 151.238 186.179 150.824 186.501L150.536 186.408Z"/><path fill="#0F1402" d="M201.253 208.865C200.413 213.998 194.201 222.526 188.507 222.862C184.388 223.105 183.089 220.413 182.785 216.877C182.172 209.753 188.462 199.533 195.647 198.151C197.147 197.874 198.471 198.768 199.543 199.836C201.632 202.661 202.234 205.465 201.253 208.865Z"/><path fill="#100904" d="M199.543 199.836C201.632 202.661 202.234 205.465 201.253 208.865C200.793 207.615 201.713 207.281 200.388 206.352C200.349 206.09 200.307 205.828 200.263 205.567C199.925 203.576 199.691 202.574 198.029 201.397L198.545 201.423C199.347 200.873 199.119 200.944 199.543 199.836Z"/><path fill="#FCFDFD" d="M198.029 201.397C199.691 202.574 199.925 203.576 200.263 205.567C200.307 205.828 200.349 206.09 200.388 206.352C200.099 206.795 200.123 206.765 199.626 206.953C197.876 206.302 196.547 203.202 198.029 201.397Z"/><path fill="#0F1402" d="M224.135 213.095C223.256 217.196 221.307 220.992 218.487 224.097C213.991 229.057 205.562 231.252 205.573 221.782C205.58 215.83 208.578 210.875 212.7 206.772C215.712 203.773 219.136 201.796 222.47 205.65C224.117 208.053 224.57 210.203 224.135 213.095Z"/><path fill="#100904" d="M222.47 205.65C224.117 208.053 224.57 210.203 224.135 213.095C223.546 212.66 223.453 212.698 222.744 212.567C222.922 210.564 222.579 207.915 220.765 206.722C221.85 206.594 221.801 206.401 222.47 205.65Z"/><path fill="#FCFDFD" d="M220.765 206.722C222.579 207.915 222.922 210.564 222.744 212.567C222.513 212.6 222.348 212.51 222.088 212.435C220.372 210.964 219.555 208.761 220.765 206.722Z"/><path fill="#9BD001" d="M168.656 318.387C170.204 319.696 171.949 321.244 173.538 322.464C176.529 324.596 179.76 326.957 183.024 328.65C184.302 329.308 185.334 330.163 186.474 331.037C190.308 333.017 191.046 332.581 194.739 333.862C196.577 332.561 204.418 332.76 206.587 333.439C206.993 333.914 207.605 334.776 207.958 335.142C209.416 336.658 214.052 339.727 214.706 341.583C215.186 342.334 225.275 346.076 226.894 347.037C227.388 347.33 231.019 349.12 231.512 349.311C233.29 351.389 238.495 357.769 240.429 359.112C240.654 360.473 242.551 364.007 243.239 365.381C253.069 385.01 250.799 406.839 239.274 425.15C232.554 435.827 220.855 437.285 209.234 436.23C207.846 437.751 206.371 439.623 204.565 440.542C205.957 436.979 206.249 434.341 202.038 432.532C196.75 430.26 189.588 429.625 185.715 424.923C183.567 422.314 182.45 419.811 179.783 417.576C175.604 417.296 171.679 418.188 167.595 418.9C159.596 420.293 148.616 422.514 140.989 418.872C131.586 414.382 117.58 399.804 114.186 390.231C113.081 387.114 111.253 381.456 112.866 378.314C114.121 375.871 117.315 373.728 119.844 372.863C126.719 369.132 137.881 365.212 143.762 360.12C146.15 357.311 145.585 355.88 145.321 352.252C145.127 349.662 143.996 344.79 143.404 342.205C143.089 340.724 142.809 339.236 142.566 337.742C142.41 335.659 142.195 333.581 141.92 331.51C142.673 331.491 142.805 331.772 143.588 332.265C151.042 332.166 160.948 325.023 166.989 320.891C167.323 319.894 167.852 319.06 168.656 318.387Z"/><path fill="#3F5B16" d="M198.611 341.044C199.424 341.615 204.445 341.269 205.63 341.031C208.104 341.038 213.103 341.854 214.706 341.583C215.186 342.334 225.275 346.076 226.894 347.037C227.388 347.33 231.019 349.12 231.512 349.311C233.29 351.389 238.495 357.769 240.429 359.112C240.654 360.473 242.551 364.007 243.239 365.381C253.069 385.01 250.799 406.839 239.274 425.15C232.554 435.827 220.855 437.285 209.234 436.23C207.846 437.751 206.371 439.623 204.565 440.542C205.957 436.979 206.249 434.341 202.038 432.532C196.75 430.26 189.588 429.625 185.715 424.923C183.567 422.314 182.45 419.811 179.783 417.576C175.604 417.296 171.679 418.188 167.595 418.9C159.596 420.293 148.616 422.514 140.989 418.872C131.586 414.382 117.58 399.804 114.186 390.231C113.081 387.114 111.253 381.456 112.866 378.314C114.121 375.871 117.315 373.728 119.844 372.863C126.719 369.132 137.881 365.212 143.762 360.12C146.15 357.311 145.585 355.88 145.321 352.252C146.034 352.62 146.082 352.618 146.873 352.811C147.363 356.16 149.675 362.546 151.129 365.91C155.218 375.37 160.788 387.616 168.44 394.785C170.87 397.062 175.468 398.998 178.478 400.245C180.034 392.457 182.069 384.773 184.572 377.235C185.184 382.882 185.575 388.551 185.744 394.229C185.881 401.068 185.394 410.313 186.216 417.035C186.499 419.343 190.831 423.226 193.199 424.426C202.587 429.18 213.714 430.539 223.89 427.666C228.766 426.35 231.176 423.908 233.542 419.563C241.33 405.262 244.8 388.78 240.561 372.806C237.994 363.133 230.323 355.498 221.648 350.793C210.909 344.97 199.581 344.567 188.038 348.104L187.999 347.628C189.86 347.209 193.261 345.768 192.977 343.498L192.41 343.229C191.26 343.233 190.792 343.6 189.81 344.158C188.227 343.961 186.693 343.816 185.11 343.566C187.688 343.571 196.652 342.039 198.611 341.044Z"/><path fill="#6E9A31" d="M143.762 360.12L144.635 359.986C145.383 360.817 146.391 366.331 146.984 368.058C148.665 372.961 150.648 378.008 153.029 382.614C157.304 390.883 163.377 399.152 170.184 405.513C172.602 407.773 175.521 409.564 177.863 411.876C178.364 412.37 178.729 412.838 178.99 413.494C178.913 413.788 178.958 413.967 178.68 414.121C177.246 414.918 158.188 418.154 155.774 418.317C153.025 418.502 149.993 418.573 147.326 417.768C138.195 415.014 130.8 408.28 124.827 401.133C122.733 398.627 120.753 396.185 119.225 393.274C117.453 389.9 115.168 384.834 116.319 380.946C117.134 378.192 120.917 374.516 123.483 373.22C124.034 372.941 124.689 372.912 125.296 372.859C125.76 372.494 125.94 372.278 126.207 371.723C126.677 370.748 127.269 370.592 127.935 369.825C125.501 370.519 122.671 371.996 120.323 373.049C120.164 372.987 120.004 372.925 119.844 372.863C126.719 369.132 137.881 365.212 143.762 360.12Z"/><defs><linearGradient id="gradient_0" gradientUnits="userSpaceOnUse" x1="163.53023" y1="328.36557" x2="198.67267" y2="346.10199"><stop offset="0" stop-color="#410605"/><stop offset="1" stop-color="#294821"/></linearGradient></defs><path fill="url(#gradient_0)" d="M168.656 318.387C170.204 319.696 171.949 321.244 173.538 322.464C176.529 324.596 179.76 326.957 183.024 328.65C184.302 329.308 185.334 330.163 186.474 331.037C190.308 333.017 191.046 332.581 194.739 333.862C196.577 332.561 204.418 332.76 206.587 333.439C206.993 333.914 207.605 334.776 207.958 335.142C209.416 336.658 214.052 339.727 214.706 341.583C213.103 341.854 208.104 341.038 205.63 341.031C204.445 341.269 199.424 341.615 198.611 341.044C196.652 342.039 187.688 343.571 185.11 343.566C186.693 343.816 188.227 343.961 189.81 344.158C190.792 343.6 191.26 343.233 192.41 343.229L192.977 343.498C193.261 345.768 189.86 347.209 187.999 347.628C187.04 347.812 186.353 348.106 185.43 348.347C184.896 346.656 184.374 347.596 184.05 346.674C186.315 345.272 186.054 345.679 187.784 344.816L187.843 344.41C185.574 344.725 184.806 346.741 181.326 346.524C175.708 346.853 163.637 342.931 160.922 336.871C160.438 335.79 161.965 333.784 162.602 332.785C163.186 333.403 163.932 334.397 164.805 334.244C166.035 332.243 167.072 323.383 166.989 320.891C167.323 319.894 167.852 319.06 168.656 318.387Z"/><path fill="#961C18" d="M173.538 322.464C176.529 324.596 179.76 326.957 183.024 328.65C181.781 330.599 181.175 330.373 180.027 331.665C177.702 334.769 174.285 336.927 171.488 340.7C170.928 340.395 168.71 339.241 168.875 338.644C170.152 334.034 173.427 327.46 173.538 322.464Z"/><path fill="#FCFDFD" d="M183.627 335.679C189.34 335.992 193.755 338.218 198.611 341.044C196.652 342.039 187.688 343.571 185.11 343.566C182.261 343.458 178.623 342.878 175.671 342.57C178.248 339.583 180.043 337.52 183.627 335.679Z"/><path fill="#961C18" d="M194.739 333.862C196.577 332.561 204.418 332.76 206.587 333.439C206.993 333.914 207.605 334.776 207.958 335.142C209.416 336.658 214.052 339.727 214.706 341.583C213.103 341.854 208.104 341.038 205.63 341.031L202.519 340.754C201.966 339.588 201.397 338.155 200.883 336.949C197.921 336.302 197.147 335.732 194.739 333.862Z"/><path fill="#502F21" d="M183.024 328.65C184.302 329.308 185.334 330.163 186.474 331.037C183.671 332.693 183.018 330.179 180.027 331.665C181.175 330.373 181.781 330.599 183.024 328.65Z"/><path fill="#3F5B16" d="M181.326 346.524C184.806 346.741 185.574 344.725 187.843 344.41L187.784 344.816C186.054 345.679 186.315 345.272 184.05 346.674C184.374 347.596 184.896 346.656 185.43 348.347C186.353 348.106 187.04 347.812 187.999 347.628L188.038 348.104C184.563 349.069 180.726 350.949 177.012 351.819C178.108 350.363 181.226 347.646 181.625 346.882L181.326 346.524Z"/><path fill="#74AE09" d="M144.285 339.869C144.823 341.822 146.838 351.047 146.873 352.811C146.082 352.618 146.034 352.62 145.321 352.252C145.127 349.662 143.996 344.79 143.404 342.205L144.285 339.869Z"/><path fill="#6C8A1E" d="M141.92 331.51C142.673 331.491 142.805 331.772 143.588 332.265L143.899 335.78C143.572 337.131 143.035 336.824 142.566 337.742C142.41 335.659 142.195 333.581 141.92 331.51Z"/><path fill="#6E9A31" d="M143.899 335.78C143.98 336.951 144.054 338.774 144.285 339.869L143.404 342.205C143.089 340.724 142.809 339.236 142.566 337.742C143.035 336.824 143.572 337.131 143.899 335.78Z"/><path fill="#6E9A31" d="M379.397 369.608C380.591 370.995 381.842 371.257 383.456 370.472C383.918 374.37 384.946 375.447 385.651 378.445C388.21 383.565 390.791 389.039 393.981 393.807C397.59 399.201 405.233 403.028 407.31 409.383C407.762 410.766 407.032 413.233 406.44 414.577C404.152 428.177 390.926 442.235 379.916 449.75C377.86 451.153 374.448 453.164 372.012 453.766C362.953 457.669 343.424 446.046 334.967 442C327.452 438.383 319.654 435.387 311.65 433.041C308.947 432.249 304.501 430.862 301.787 430.664C296.869 430.306 286.578 430.844 283.265 434.848C277.218 442.154 273.617 450.406 264.921 455.129C265.335 454.531 265.384 454.067 265.817 453.504C269.917 448.178 274.402 443.065 278.388 437.654C284.911 428.802 291.603 420.056 298.511 411.501C302.558 406.489 307.079 400.448 311.371 395.742C310.267 399.505 308.525 402.727 306.802 406.232C307.498 406.584 307.746 406.622 308.577 406.472C324.618 403.583 340.772 398.471 355.312 391.07C356.806 390.297 358.177 389.185 359.567 388.28C367.933 382.836 373.044 377.129 379.397 369.608Z"/><path fill="#3F5B16" d="M264.921 455.129C265.335 454.531 265.384 454.067 265.817 453.504C269.917 448.178 274.402 443.065 278.388 437.654C284.911 428.802 291.603 420.056 298.511 411.501C302.558 406.489 307.079 400.448 311.371 395.742C310.267 399.505 308.525 402.727 306.802 406.232C302.509 413.52 297.748 419.544 293.493 426.957L293.845 427.041C296.488 427.655 299.189 427.631 301.867 427.989C314.284 429.65 325.777 434.03 337.202 438.948C344.697 442.175 351.183 446.881 358.647 450.064C361.039 451.082 361.878 450.816 363.694 451.343C360.014 452.447 353.209 447.006 349.594 446.252C348.359 445.994 348.46 447.053 348.346 448.028C349.172 449.002 362.229 454.045 364.518 453.878C365.285 453.822 371.989 453.76 372.012 453.766C362.953 457.669 343.424 446.046 334.967 442C327.452 438.383 319.654 435.387 311.65 433.041C308.947 432.249 304.501 430.862 301.787 430.664C296.869 430.306 286.578 430.844 283.265 434.848C277.218 442.154 273.617 450.406 264.921 455.129Z"/><path fill="#3F5B16" d="M385.651 378.445C388.21 383.565 390.791 389.039 393.981 393.807C397.59 399.201 405.233 403.028 407.31 409.383C407.762 410.766 407.032 413.233 406.44 414.577C406.337 413.489 406.613 412.466 406.699 411.362C406.94 408.277 405.709 406.238 403.365 404.366C402.507 403.681 401.713 402.659 400.519 402.56C400.05 404.112 404.444 406.605 404.179 410.271C404.005 410.071 404.075 410.195 403.994 409.863C402.782 404.923 396.591 400.999 393.412 396.568C390.872 393.027 389.005 391.319 387.217 386.962C386.405 384.986 385.816 385.257 385.319 382.373C385.816 382.807 386.247 384.642 386.632 385.344C388.288 388.363 390.139 392.582 392.691 394.916C393.691 395.829 393.822 396.295 394.581 397.368C394.697 394.851 390.376 389.46 389.351 386.578C388.357 383.78 385.62 382.177 385.651 378.445Z"/><path fill="#3F5B16" d="M381.169 406.081C385.677 405.761 389.907 407.893 394.328 409.219C382.527 410.487 379.05 414.283 371.506 422.167C369.292 424.779 367.15 427.714 364.954 430.394C366.995 422.82 373.676 414.556 377.743 407.822C378.659 406.304 379.531 406.29 381.169 406.081Z"/><defs><linearGradient id="gradient_1" gradientUnits="userSpaceOnUse" x1="285.82062" y1="307.30627" x2="294.8949" y2="361.17545"><stop offset="0" stop-color="#560A03"/><stop offset="1" stop-color="#2F150A"/></linearGradient></defs><path fill="url(#gradient_1)" d="M280.594 306.8C280.72 306.711 280.829 306.627 280.973 306.563C295.783 300.017 314.287 298.182 329.451 303.778C331.431 303.915 331.68 305.12 333.937 305.447L334.402 305.489C335.385 306.069 337.092 307.115 338.182 307.369C339.693 307.822 341.41 308.705 342.453 308.99L342.562 309.177C344.492 309.784 345.473 310.224 347.138 311.442L348.244 312.671C348.291 317.132 347.94 322.501 346.204 326.638C343.467 335.725 334.102 344.751 325.916 349.403C325.716 349.516 325.505 349.578 325.288 349.647C323.199 351.222 316.973 353.985 314.484 355.023C296.825 362.389 278.068 366.349 258.974 363.644C252.649 362.797 246.432 361.278 240.429 359.112C238.495 357.769 233.29 351.389 231.512 349.311C232.355 348.99 232.316 348.97 233.199 349.034C237.295 348.424 239.106 347.894 243.012 346.569C247.523 344.67 255.162 338.851 256.981 334.171C257.01 332.568 257.587 331.892 258.836 330.989C261.497 326.801 263.465 318.633 265.234 313.514C266.676 312.716 274.849 309.153 276.281 308.771L276.442 308.779C277.263 307.855 279.39 307.095 280.594 306.8Z"/><path fill="#FCFDFD" d="M280.594 306.8C280.72 306.711 280.829 306.627 280.973 306.563C295.783 300.017 314.287 298.182 329.451 303.778C317.728 320.029 308.621 329.572 289.921 314.832C286.435 312.085 283.87 309.849 280.594 306.8Z"/><path fill="#DC3326" d="M314.171 330.915L313.905 331.174C311.351 333.673 308.428 338.807 304.685 338.78C304.437 338.778 304.19 338.771 303.943 338.758C300.397 338.209 297.746 336.946 294.187 338.203C289.889 339.722 287.113 342.908 284.122 346.193L283.863 346.207C280.789 346.395 275.29 347.469 272.552 347.615C268.026 347.858 245.642 349.162 243.166 347.03L243.012 346.569C247.523 344.67 255.162 338.851 256.981 334.171C259.944 334.268 263.794 334.153 266.55 334.348C265.062 335.245 263.831 335.937 262.284 336.727L263.467 337.717C268.986 336.182 275.852 335.292 281.522 334.24C291.769 332.337 299.018 331.059 309.458 330.972C311.265 331.051 312.363 331.032 314.171 330.915Z"/><path fill="#5D0204" d="M258.441 339.13C259.862 337.888 260.582 337.555 262.284 336.727L263.467 337.717C261.89 338.219 260.054 338.682 258.441 339.13Z"/><path fill="#961C18" d="M243.012 346.569L243.166 347.03C245.642 349.162 268.026 347.858 272.552 347.615C275.29 347.469 280.789 346.395 283.863 346.207L284.122 346.193C281.111 351.319 280.423 353.369 278.1 358.706C265.68 360.248 254.467 357.877 242.761 353.774C240.773 353.077 233.618 351.015 233.11 349.231L233.199 349.034C237.295 348.424 239.106 347.894 243.012 346.569Z"/><defs><linearGradient id="gradient_2" gradientUnits="userSpaceOnUse" x1="301.45218" y1="327.37289" x2="306.48718" y2="300.03186"><stop offset="0" stop-color="#242F0F"/><stop offset="1" stop-color="#312611"/></linearGradient></defs><path fill="url(#gradient_2)" d="M329.451 303.778C331.431 303.915 331.68 305.12 333.937 305.447C331.847 306.247 331.559 308.182 330.718 310.067C329.877 311.949 329.244 313.963 328.041 315.68C325.264 319.348 321.432 322.819 317.636 325.434C312.005 328.658 303.841 329.42 297.892 326.702C292.127 324.205 285.397 317.871 280.605 313.523C279.962 312.939 278.087 309.807 277.467 308.981C277.464 308.978 276.604 308.839 276.442 308.779C277.263 307.855 279.39 307.095 280.594 306.8C283.87 309.849 286.435 312.085 289.921 314.832C308.621 329.572 317.728 320.029 329.451 303.778Z"/><path fill="#961C18" d="M309.458 330.972C316.378 330.23 330.065 331.489 335.674 335.615C332.928 339.449 323.402 346.476 319.05 348.467C315.459 343.441 310.061 339.831 303.943 338.758C304.19 338.771 304.437 338.778 304.685 338.78C308.428 338.807 311.351 333.673 313.905 331.174L314.171 330.915C312.363 331.032 311.265 331.051 309.458 330.972Z"/><path fill="#961C18" d="M265.234 313.514C266.676 312.716 274.849 309.153 276.281 308.771C276.169 310.536 275.034 314.707 274.484 316.433C272.564 322.466 272.478 324.876 272.805 330.968C268.704 330.405 263.04 330.855 258.836 330.989C261.497 326.801 263.465 318.633 265.234 313.514Z"/><path fill="#961C18" d="M338.182 307.369C339.693 307.822 341.41 308.705 342.453 308.99L342.562 309.177C342.706 314.226 342.06 318.734 340.381 323.437C340.003 324.498 340.043 326.494 339.656 327.852L339.24 327.983L338.891 327.717C338.688 326.567 339.511 321.814 339.432 320.297C339.207 315.973 338.463 311.681 338.182 307.369Z"/><path fill="#100904" d="M347.138 311.442L348.244 312.671C348.291 317.132 347.94 322.501 346.204 326.638C345.861 325.892 345.729 324.486 345.552 323.575C345.442 322.039 345.999 314.951 346.233 313.062C346.269 312.772 346.953 311.719 347.138 311.442Z"/><path fill="#100904" d="M345.552 323.575C345.729 324.486 345.861 325.892 346.204 326.638C343.467 335.725 334.102 344.751 325.916 349.403C325.716 349.516 325.505 349.578 325.288 349.647C325.434 348.776 337.58 341.217 338.651 338.194C339.151 336.784 345.221 331.054 344.692 328.443L343.939 328.299C344.462 326.72 345 325.145 345.552 323.575Z"/><path fill="#FCFDFD" d="M297.978 341.739C304.03 341.338 312.196 345.974 317.207 349.158C311.33 352.066 304.101 353.985 297.738 355.45C291.622 356.809 287.285 357.437 281.18 358.375C285.336 350.368 289.595 345.421 297.978 341.739Z"/><path fill="#3F5B16" d="M135.15 237.368C136.068 238.46 135.873 238.178 136.133 239.766C128.82 253.349 135.535 264.89 142.317 276.75C150.943 291.838 161.636 305.528 174.889 316.838C178.827 320.203 181.611 322.405 186.197 324.922C199.238 332.083 217.651 326.429 230.87 322.09C235.23 320.659 245.152 317.081 249.522 315.115C270.812 305.538 294.4 292.288 318.514 295.359C324.985 296.183 334.671 300.169 340.516 303.174C347.69 306.863 351.262 309.345 355.799 316.009C354.506 315.392 349.264 312.754 348.244 312.671L347.138 311.442C345.473 310.224 344.492 309.784 342.562 309.177L342.453 308.99C341.41 308.705 339.693 307.822 338.182 307.369C337.092 307.115 335.385 306.069 334.402 305.489L333.937 305.447C331.68 305.12 331.431 303.915 329.451 303.778C314.287 298.182 295.783 300.017 280.973 306.563C280.829 306.627 280.72 306.711 280.594 306.8C279.39 307.095 277.263 307.855 276.442 308.779L276.281 308.771C274.849 309.153 266.676 312.716 265.234 313.514C263.465 318.633 261.497 326.801 258.836 330.989C257.587 331.892 257.01 332.568 256.981 334.171C255.162 338.851 247.523 344.67 243.012 346.569C239.106 347.894 237.295 348.424 233.199 349.034C232.316 348.97 232.355 348.99 231.512 349.311C231.019 349.12 227.388 347.33 226.894 347.037C225.275 346.076 215.186 342.334 214.706 341.583C214.052 339.727 209.416 336.658 207.958 335.142C207.605 334.776 206.993 333.914 206.587 333.439C204.418 332.76 196.577 332.561 194.739 333.862C191.046 332.581 190.308 333.017 186.474 331.037C185.334 330.163 184.302 329.308 183.024 328.65C179.76 326.957 176.529 324.596 173.538 322.464C171.949 321.244 170.204 319.696 168.656 318.387C167.852 319.06 167.323 319.894 166.989 320.891C160.948 325.023 151.042 332.166 143.588 332.265C142.805 331.772 142.673 331.491 141.92 331.51C141.657 330.915 141.596 329.941 141.259 329.307C138.979 325.03 136.047 322.295 136.337 317.082C136.45 315.047 136.313 312.294 136.312 310.16C136.259 305.807 136.606 302.362 133.597 298.97L133.079 298.823C130.437 298.071 127.529 297.552 126.25 294.887C123.805 289.791 123.927 279.612 125.523 274.357C126.131 270.983 126.951 265.587 128.708 262.788C128.928 260.933 129.729 258.042 129.909 255.81C130.604 247.225 130.936 244.984 135.15 237.368Z"/><path fill="#FCFDFD" d="M128.708 262.788C130.178 265.571 131.336 268.434 132.765 271.229C136.604 278.902 141.079 286.239 146.143 293.165C151.454 300.262 157.247 306.984 163.483 313.283C164.121 313.938 166.141 315.909 166.453 316.594C167.133 317.163 167.946 317.884 168.656 318.387C167.852 319.06 167.323 319.894 166.989 320.891C160.948 325.023 151.042 332.166 143.588 332.265C142.805 331.772 142.673 331.491 141.92 331.51C141.657 330.915 141.596 329.941 141.259 329.307C138.979 325.03 136.047 322.295 136.337 317.082C136.45 315.047 136.313 312.294 136.312 310.16C136.259 305.807 136.606 302.362 133.597 298.97L133.079 298.823C130.437 298.071 127.529 297.552 126.25 294.887C123.805 289.791 123.927 279.612 125.523 274.357C126.131 270.983 126.951 265.587 128.708 262.788Z"/><path fill="#1F2C07" d="M136.312 310.16L136.515 310.22C138.473 327.004 147.204 328.856 160.105 320.56C161.796 319.472 164.758 317.44 166.453 316.594C167.133 317.163 167.946 317.884 168.656 318.387C167.852 319.06 167.323 319.894 166.989 320.891C160.948 325.023 151.042 332.166 143.588 332.265C142.805 331.772 142.673 331.491 141.92 331.51C141.657 330.915 141.596 329.941 141.259 329.307C138.979 325.03 136.047 322.295 136.337 317.082C136.45 315.047 136.313 312.294 136.312 310.16Z"/><defs><linearGradient id="gradient_3" gradientUnits="userSpaceOnUse" x1="124.17732" y1="285.40576" x2="139.60175" y2="295.15787"><stop offset="0" stop-color="#10160D"/><stop offset="1" stop-color="#252915"/></linearGradient></defs><path fill="url(#gradient_3)" d="M133.597 298.97L133.079 298.823C130.437 298.071 127.529 297.552 126.25 294.887C123.805 289.791 123.927 279.612 125.523 274.357C125.092 279.234 125.529 287.617 128.486 291.841C129.488 293.273 132.953 295.273 134.633 294.252C136.04 291.847 136.871 287.75 139.33 285.696L139.732 285.738C140.064 287.274 139.467 289.896 138.992 291.404C136.957 297.879 136.436 303.446 136.515 310.22L136.312 310.16C136.259 305.807 136.606 302.362 133.597 298.97Z"/><path fill="#FCFDFD" d="M260.451 316.271C261.877 315.627 262.858 314.297 265.234 313.514C263.465 318.633 261.497 326.801 258.836 330.989C257.587 331.892 257.01 332.568 256.981 334.171C255.162 338.851 247.523 344.67 243.012 346.569C239.106 347.894 237.295 348.424 233.199 349.034C232.316 348.97 232.355 348.99 231.512 349.311C231.019 349.12 227.388 347.33 226.894 347.037C225.275 346.076 215.186 342.334 214.706 341.583C214.052 339.727 209.416 336.658 207.958 335.142C207.605 334.776 206.993 333.914 206.587 333.439C209.219 334.287 208.973 332.167 212.284 332.027C213.476 331.476 220.228 330.361 222.23 329.789C231.786 327.148 241.183 323.963 250.376 320.249C252.412 319.421 259.041 316.023 260.451 316.271Z"/><defs><linearGradient id="gradient_4" gradientUnits="userSpaceOnUse" x1="232.39064" y1="348.7287" x2="238.70357" y2="310.34006"><stop offset="0" stop-color="#232E0B"/><stop offset="1" stop-color="#29281B"/></linearGradient></defs><path fill="url(#gradient_4)" d="M260.451 316.271C261.877 315.627 262.858 314.297 265.234 313.514C263.465 318.633 261.497 326.801 258.836 330.989C257.587 331.892 257.01 332.568 256.981 334.171C255.162 338.851 247.523 344.67 243.012 346.569C239.106 347.894 237.295 348.424 233.199 349.034C232.316 348.97 232.355 348.99 231.512 349.311C231.019 349.12 227.388 347.33 226.894 347.037C225.275 346.076 215.186 342.334 214.706 341.583C214.052 339.727 209.416 336.658 207.958 335.142C207.605 334.776 206.993 333.914 206.587 333.439C209.219 334.287 208.973 332.167 212.284 332.027C216.593 335.735 220.903 338.595 226.159 341.104C238.269 346.885 249.91 336.467 255.827 326.71C257.477 323.99 259.183 319.317 260.451 316.271Z"/><path fill="#585021" d="M334.402 305.489C336.235 304.885 336.802 304.943 338.633 305.79C339.288 306.093 342.093 308.523 342.453 308.99C341.41 308.705 339.693 307.822 338.182 307.369C337.092 307.115 335.385 306.069 334.402 305.489Z"/><path fill="#3F5B16" d="M374.9 191.644C387.662 208.643 397.893 227.292 406.476 246.696C409.673 253.922 413.164 261.727 414.635 269.529C415.491 274.074 415.398 280.314 414.751 284.889C412.925 297.804 408.333 310.172 403.639 322.248C400.169 331.177 396.533 340.106 392.48 348.786C390.543 352.933 388.33 356.946 386.396 361.099C385.656 361.589 385.22 361.344 384.544 361.005C390.35 346.761 395.719 332.344 400.643 317.772C403.389 309.861 406.462 301.628 408.503 293.643C412.759 276.986 410.582 262.725 403.775 247.243C397.15 232.172 389.63 218.224 380.992 204.185C378.729 200.506 376.314 196.916 374.071 193.217L374.9 191.644Z"/><path fill="#3F5B16" d="M234.297 154.08C248.857 146.887 264.288 141.609 280.203 138.38C281.163 138.636 281.299 138.478 281.69 139.091C281.302 139.694 281.257 139.671 280.663 140.028L280.329 140.144C277.215 141.204 272.851 141.808 269.657 142.852C260.668 145.79 251.632 149.341 242.876 152.931C242.099 153.25 237.068 155.299 236.556 155.597C235.493 155.023 235.211 154.86 234.297 154.08Z"/><path fill="#3F5B16" d="M324.382 134.725C322.803 142.455 328.994 143.676 333.692 147.681C329.982 147.906 328.794 145.578 327.092 145.734C326.724 146.259 326.694 146.413 326.117 146.685C324.574 146.307 322.773 144.892 321.083 144.205C320.781 141.795 321.614 138.955 322.516 136.739C323.029 135.478 323.138 135.326 324.382 134.725Z"/><path fill="#3F5B16" d="M199.791 447.668C200.371 449.649 199.836 451.8 200.027 453.977C202.439 457.406 206.277 458.106 210.325 458.788C210.747 458.856 211.172 458.909 211.597 458.946L211.873 459.657C211.496 460.377 211.584 460.165 210.773 460.651C207.464 460.184 197.943 458.505 196.932 454.748C196.34 452.547 198.57 449.483 199.791 447.668Z"/><path fill="#1F2C07" d="M344.232 156.115C350.069 160.45 356.07 166.711 360.522 172.451L359.958 172.741L359.382 172.469C359.202 172.752 359.067 172.969 358.9 173.263C355.847 169.972 352.523 166.325 349.648 162.894C347.651 160.511 346.457 158.551 344.232 156.115Z"/><path fill="#3F5B16" d="M225.886 460.442L242.503 461.218C243.624 461.263 244.773 461.105 245.818 461.216C244.093 461.548 242.395 461.572 240.693 461.877C235.551 462.799 229.799 463.87 224.684 461.991C224.762 461.133 225.058 461.154 225.886 460.442Z"/><path fill="#527A30" d="M363.682 179.147C363.96 178.518 363.754 178.765 364.314 178.375L365.487 178.63C367.787 182.114 370.584 185.246 372.873 188.739C373.521 189.728 374.193 190.696 374.9 191.644L374.071 193.217C370.819 188.611 366.689 183.543 363.682 179.147Z"/><path fill="#527A30" d="M379.397 369.608C381.416 366.933 383.142 364.049 384.544 361.005C385.22 361.344 385.656 361.589 386.396 361.099C385.448 363.677 383.572 367.964 383.456 370.472C381.842 371.257 380.591 370.995 379.397 369.608Z"/><path fill="#6C8A1E" d="M211.597 458.946C215.414 459.23 219.191 459.914 223.013 460.148C223.973 460.206 224.939 460.27 225.886 460.442C225.058 461.154 224.762 461.133 224.684 461.991C220.199 461.472 215.405 461.175 210.773 460.651C211.584 460.165 211.496 460.377 211.873 459.657L211.597 458.946Z"/><path fill="#3F5B16" d="M360.522 172.451C362.072 173.777 364.323 176.831 365.487 178.63L364.314 178.375C363.754 178.765 363.96 178.518 363.682 179.147C362.407 177.691 359.98 174.748 358.9 173.263C359.067 172.969 359.202 172.752 359.382 172.469L359.958 172.741L360.522 172.451Z"/><path fill="#3F5B16" d="M280.203 138.38C284.432 137.146 287.646 137.445 292.045 137.504C288.533 138.376 284.459 139.089 280.663 140.028C281.257 139.671 281.302 139.694 281.69 139.091C281.299 138.478 281.163 138.636 280.203 138.38Z"/><path fill="#9BD001" d="M292.37 137.478C296.873 136.659 302.195 136.833 306.451 135.26C316.823 131.426 327.533 97.1946 330.324 86.6329C331.81 80.9901 332.967 75.2659 333.789 69.4892C335.028 60.1557 330.985 53.9345 335.689 43.994C338.639 36.9952 344.177 31.5691 351.093 28.4823C357.829 25.476 372.721 29.2557 375.335 36.5195C378.359 41.6605 377.935 47.1808 376.539 52.7349C374.72 59.9634 370.859 63.9247 365.133 68.4817C363.647 69.6647 361.364 71.0834 360.08 72.3702C350.139 83.7187 327.096 120.206 324.382 134.725C323.138 135.326 323.029 135.478 322.516 136.739C321.614 138.955 320.781 141.795 321.083 144.205C316.59 144.502 311.41 140.595 307.471 139.673C303.65 138.779 298.485 138.911 294.57 137.881C293.461 137.589 293.548 137.59 292.37 137.478Z"/><defs><linearGradient id="gradient_5" gradientUnits="userSpaceOnUse" x1="315.04507" y1="70.879166" x2="353.31024" y2="99.255112"><stop offset="0" stop-color="#46650D"/><stop offset="1" stop-color="#7DAC45"/></linearGradient></defs><path fill="url(#gradient_5)" d="M292.37 137.478C296.873 136.659 302.195 136.833 306.451 135.26C316.823 131.426 327.533 97.1946 330.324 86.6329C331.81 80.9901 332.967 75.2659 333.789 69.4892C335.028 60.1557 330.985 53.9345 335.689 43.994C338.639 36.9952 344.177 31.5691 351.093 28.4823C357.829 25.476 372.721 29.2557 375.335 36.5195C375.11 37.493 377.301 42.0537 377.196 43.756C376.986 47.1484 376.825 51.1697 375.249 54.1684L375.086 54.2043C375.73 51.7918 376.249 48.4123 376.374 45.8961C376.494 43.4879 373.234 34.7783 370.809 34.2897C366.391 30.2851 363.146 29.7571 357.296 29.9394C351.048 30.1259 347.18 32.2129 342.963 36.6712C335.124 44.9605 336.494 53.0961 336.806 63.3678C337.028 70.6979 334.469 75.2964 341.164 81.1126C349.196 88.0891 354.799 75.6354 359.603 71.1986L360.08 72.3702C350.139 83.7187 327.096 120.206 324.382 134.725C323.138 135.326 323.029 135.478 322.516 136.739C321.614 138.955 320.781 141.795 321.083 144.205C316.59 144.502 311.41 140.595 307.471 139.673C303.65 138.779 298.485 138.911 294.57 137.881C293.461 137.589 293.548 137.59 292.37 137.478Z"/><path fill="#527A30" d="M370.809 34.2897C373.234 34.7783 376.494 43.4879 376.374 45.8961C376.249 48.4123 375.73 51.7918 375.086 54.2043L375.249 54.1684C376.825 51.1697 376.986 47.1484 377.196 43.756C377.301 42.0537 375.11 37.493 375.335 36.5195C378.359 41.6605 377.935 47.1808 376.539 52.7349C374.72 59.9634 370.859 63.9247 365.133 68.4817C363.647 69.6647 361.364 71.0834 360.08 72.3702L359.603 71.1986C360.322 70.7233 361.176 69.6865 361.907 69.1655C369.408 63.8179 374.651 58.5689 375.635 48.8291C376.205 43.1867 374.365 38.7263 370.809 34.2897Z"/></svg>